<mxfile host="65bd71144e">
    <diagram id="wk9Sfx80qL6Rvh7clGJg" name="PÃ¡gina-1">
        <mxGraphModel dx="2031" dy="736" grid="1" gridSize="10" guides="1" tooltips="1" connect="1" arrows="1" fold="1" page="1" pageScale="1" pageWidth="827" pageHeight="1169" math="0" shadow="0">
            <root>
                <mxCell id="0"/>
                <mxCell id="1" parent="0"/>
                <mxCell id="33" value="" style="edgeStyle=none;sketch=1;hachureGap=4;jiggle=2;curveFitting=1;html=1;fontFamily=Architects Daughter;fontSource=https%3A%2F%2Ffonts.googleapis.com%2Fcss%3Ffamily%3DArchitects%2BDaughter;fontSize=16;shadow=1;fontStyle=1;fontColor=#fdfcfc;" parent="1" source="31" target="32" edge="1">
                    <mxGeometry relative="1" as="geometry"/>
                </mxCell>
                <mxCell id="31" value="&lt;span&gt;INICIO&lt;/span&gt;" style="ellipse;whiteSpace=wrap;html=1;sketch=1;hachureGap=4;jiggle=2;curveFitting=1;fontFamily=Architects Daughter;fontSource=https%3A%2F%2Ffonts.googleapis.com%2Fcss%3Ffamily%3DArchitects%2BDaughter;fontSize=20;shadow=1;fontStyle=1;fillColor=#60a917;fontColor=#fdfcfc;strokeColor=#2D7600;" parent="1" vertex="1">
                    <mxGeometry x="350" y="70" width="120" height="80" as="geometry"/>
                </mxCell>
                <mxCell id="35" value="" style="edgeStyle=none;sketch=1;hachureGap=4;jiggle=2;curveFitting=1;html=1;fontFamily=Architects Daughter;fontSource=https%3A%2F%2Ffonts.googleapis.com%2Fcss%3Ffamily%3DArchitects%2BDaughter;fontSize=16;shadow=1;fontStyle=1;fontColor=#fdfcfc;" parent="1" source="32" target="34" edge="1">
                    <mxGeometry relative="1" as="geometry"/>
                </mxCell>
                <mxCell id="70" value="" style="edgeStyle=none;sketch=1;hachureGap=4;jiggle=2;curveFitting=1;html=1;fontFamily=Architects Daughter;fontSource=https%3A%2F%2Ffonts.googleapis.com%2Fcss%3Ffamily%3DArchitects%2BDaughter;fontSize=16;fontColor=#fdfcfc;" parent="1" source="32" target="31" edge="1">
                    <mxGeometry relative="1" as="geometry"/>
                </mxCell>
                <mxCell id="32" value="peso, altura" style="shape=parallelogram;perimeter=parallelogramPerimeter;whiteSpace=wrap;html=1;fixedSize=1;fontSize=20;fontFamily=Architects Daughter;sketch=1;hachureGap=4;jiggle=2;curveFitting=1;fontSource=https%3A%2F%2Ffonts.googleapis.com%2Fcss%3Ffamily%3DArchitects%2BDaughter;shadow=1;fontStyle=1;fillColor=#6a00ff;fontColor=#fdfcfc;strokeColor=#3700CC;" parent="1" vertex="1">
                    <mxGeometry x="310" y="210" width="190" height="70" as="geometry"/>
                </mxCell>
                <mxCell id="37" value="" style="edgeStyle=none;sketch=1;hachureGap=4;jiggle=2;curveFitting=1;html=1;fontFamily=Architects Daughter;fontSource=https%3A%2F%2Ffonts.googleapis.com%2Fcss%3Ffamily%3DArchitects%2BDaughter;fontSize=16;shadow=1;fontStyle=1;fontColor=#fdfcfc;" parent="1" source="34" target="36" edge="1">
                    <mxGeometry relative="1" as="geometry"/>
                </mxCell>
                <mxCell id="34" value="(IMC = peso[kg] / altura2 [m])" style="whiteSpace=wrap;html=1;fontSize=20;fontFamily=Architects Daughter;sketch=1;hachureGap=4;jiggle=2;curveFitting=1;fontSource=https%3A%2F%2Ffonts.googleapis.com%2Fcss%3Ffamily%3DArchitects%2BDaughter;shadow=1;fontStyle=1;opacity=90;fillColor=#0050ef;fontColor=#fdfcfc;strokeColor=#001DBC;" parent="1" vertex="1">
                    <mxGeometry x="314" y="320" width="200" height="60" as="geometry"/>
                </mxCell>
                <mxCell id="39" value="" style="edgeStyle=none;sketch=1;hachureGap=4;jiggle=2;curveFitting=1;html=1;fontFamily=Architects Daughter;fontSource=https%3A%2F%2Ffonts.googleapis.com%2Fcss%3Ffamily%3DArchitects%2BDaughter;fontSize=16;shadow=1;fontStyle=1;fontColor=#fdfcfc;" parent="1" source="36" target="38" edge="1">
                    <mxGeometry relative="1" as="geometry">
                        <Array as="points">
                            <mxPoint x="310" y="490"/>
                            <mxPoint x="250" y="490"/>
                        </Array>
                    </mxGeometry>
                </mxCell>
                <mxCell id="55" value="" style="edgeStyle=none;sketch=1;hachureGap=4;jiggle=2;curveFitting=1;html=1;fontFamily=Architects Daughter;fontSource=https%3A%2F%2Ffonts.googleapis.com%2Fcss%3Ffamily%3DArchitects%2BDaughter;fontSize=16;fontColor=#fdfcfc;" parent="1" source="36" target="54" edge="1">
                    <mxGeometry relative="1" as="geometry"/>
                </mxCell>
                <mxCell id="36" value="IMC &amp;gt;16" style="rhombus;whiteSpace=wrap;html=1;fontSize=20;fontFamily=Architects Daughter;sketch=1;hachureGap=4;jiggle=2;curveFitting=1;fontSource=https%3A%2F%2Ffonts.googleapis.com%2Fcss%3Ffamily%3DArchitects%2BDaughter;shadow=1;fontStyle=1;fillColor=#008a00;fontColor=#fdfcfc;strokeColor=#005700;" parent="1" vertex="1">
                    <mxGeometry x="364" y="450" width="106" height="80" as="geometry"/>
                </mxCell>
                <mxCell id="41" value="" style="edgeStyle=none;sketch=1;hachureGap=4;jiggle=2;curveFitting=1;html=1;fontFamily=Architects Daughter;fontSource=https%3A%2F%2Ffonts.googleapis.com%2Fcss%3Ffamily%3DArchitects%2BDaughter;fontSize=16;shadow=1;fontStyle=1;fontColor=#fdfcfc;" parent="1" source="38" target="40" edge="1">
                    <mxGeometry relative="1" as="geometry">
                        <Array as="points">
                            <mxPoint x="60" y="585"/>
                        </Array>
                    </mxGeometry>
                </mxCell>
                <mxCell id="57" value="" style="edgeStyle=none;sketch=1;hachureGap=4;jiggle=2;curveFitting=1;html=1;fontFamily=Architects Daughter;fontSource=https%3A%2F%2Ffonts.googleapis.com%2Fcss%3Ffamily%3DArchitects%2BDaughter;fontSize=16;fontColor=#fdfcfc;" parent="1" source="38" target="56" edge="1">
                    <mxGeometry relative="1" as="geometry"/>
                </mxCell>
                <mxCell id="38" value="IMC de 16 a 17" style="rhombus;whiteSpace=wrap;html=1;fontSize=20;fontFamily=Architects Daughter;sketch=1;hachureGap=4;jiggle=2;curveFitting=1;fontSource=https%3A%2F%2Ffonts.googleapis.com%2Fcss%3Ffamily%3DArchitects%2BDaughter;shadow=1;fontStyle=1;fillColor=#a20025;fontColor=#fdfcfc;strokeColor=#6F0000;" parent="1" vertex="1">
                    <mxGeometry x="170" y="545" width="170" height="95" as="geometry"/>
                </mxCell>
                <mxCell id="44" value="" style="edgeStyle=none;sketch=1;hachureGap=4;jiggle=2;curveFitting=1;html=1;fontFamily=Architects Daughter;fontSource=https%3A%2F%2Ffonts.googleapis.com%2Fcss%3Ffamily%3DArchitects%2BDaughter;fontSize=16;shadow=1;fontStyle=1;fontColor=#fdfcfc;" parent="1" source="40" target="43" edge="1">
                    <mxGeometry relative="1" as="geometry">
                        <Array as="points">
                            <mxPoint x="-80" y="720"/>
                        </Array>
                    </mxGeometry>
                </mxCell>
                <mxCell id="59" value="" style="edgeStyle=none;sketch=1;hachureGap=4;jiggle=2;curveFitting=1;html=1;fontFamily=Architects Daughter;fontSource=https%3A%2F%2Ffonts.googleapis.com%2Fcss%3Ffamily%3DArchitects%2BDaughter;fontSize=16;fontColor=#fdfcfc;" parent="1" source="40" target="58" edge="1">
                    <mxGeometry relative="1" as="geometry"/>
                </mxCell>
                <mxCell id="40" value="De 17 a 18" style="rhombus;whiteSpace=wrap;html=1;fontSize=20;fontFamily=Architects Daughter;sketch=1;hachureGap=4;jiggle=2;curveFitting=1;fontSource=https%3A%2F%2Ffonts.googleapis.com%2Fcss%3Ffamily%3DArchitects%2BDaughter;shadow=1;fontStyle=1;fillColor=#e51400;fontColor=#fdfcfc;strokeColor=#B20000;" parent="1" vertex="1">
                    <mxGeometry x="1" y="680" width="130" height="80" as="geometry"/>
                </mxCell>
                <mxCell id="46" value="" style="edgeStyle=none;sketch=1;hachureGap=4;jiggle=2;curveFitting=1;html=1;fontFamily=Architects Daughter;fontSource=https%3A%2F%2Ffonts.googleapis.com%2Fcss%3Ffamily%3DArchitects%2BDaughter;fontSize=16;shadow=1;fontStyle=1;fontColor=#fdfcfc;" parent="1" source="43" target="45" edge="1">
                    <mxGeometry relative="1" as="geometry">
                        <Array as="points">
                            <mxPoint x="-280" y="860"/>
                        </Array>
                    </mxGeometry>
                </mxCell>
                <mxCell id="61" value="" style="edgeStyle=none;sketch=1;hachureGap=4;jiggle=2;curveFitting=1;html=1;fontFamily=Architects Daughter;fontSource=https%3A%2F%2Ffonts.googleapis.com%2Fcss%3Ffamily%3DArchitects%2BDaughter;fontSize=16;fontColor=#fdfcfc;" parent="1" source="43" target="60" edge="1">
                    <mxGeometry relative="1" as="geometry"/>
                </mxCell>
                <mxCell id="43" value="De 18 a 25" style="rhombus;whiteSpace=wrap;html=1;fontSize=20;fontFamily=Architects Daughter;sketch=1;hachureGap=4;jiggle=2;curveFitting=1;fontSource=https%3A%2F%2Ffonts.googleapis.com%2Fcss%3Ffamily%3DArchitects%2BDaughter;shadow=1;fontStyle=1;fillColor=#76608a;fontColor=#fdfcfc;strokeColor=#432D57;" parent="1" vertex="1">
                    <mxGeometry x="-150" y="820" width="130" height="80" as="geometry"/>
                </mxCell>
                <mxCell id="48" value="" style="edgeStyle=none;sketch=1;hachureGap=4;jiggle=2;curveFitting=1;html=1;fontFamily=Architects Daughter;fontSource=https%3A%2F%2Ffonts.googleapis.com%2Fcss%3Ffamily%3DArchitects%2BDaughter;fontSize=16;shadow=1;fontStyle=1;fontColor=#fdfcfc;" parent="1" source="45" target="47" edge="1">
                    <mxGeometry relative="1" as="geometry">
                        <Array as="points">
                            <mxPoint x="-440" y="1000"/>
                        </Array>
                    </mxGeometry>
                </mxCell>
                <mxCell id="63" value="" style="edgeStyle=none;sketch=1;hachureGap=4;jiggle=2;curveFitting=1;html=1;fontFamily=Architects Daughter;fontSource=https%3A%2F%2Ffonts.googleapis.com%2Fcss%3Ffamily%3DArchitects%2BDaughter;fontSize=16;fontColor=#fdfcfc;" parent="1" source="45" target="62" edge="1">
                    <mxGeometry relative="1" as="geometry"/>
                </mxCell>
                <mxCell id="45" value="De 25 a 30" style="rhombus;whiteSpace=wrap;html=1;fontSize=20;fontFamily=Architects Daughter;sketch=1;hachureGap=4;jiggle=2;curveFitting=1;fontSource=https%3A%2F%2Ffonts.googleapis.com%2Fcss%3Ffamily%3DArchitects%2BDaughter;shadow=1;fontStyle=1;fillColor=#fad9d5;strokeColor=#ae4132;fontColor=#fdfcfc;" parent="1" vertex="1">
                    <mxGeometry x="-340" y="960" width="140" height="80" as="geometry"/>
                </mxCell>
                <mxCell id="51" value="" style="edgeStyle=none;sketch=1;hachureGap=4;jiggle=2;curveFitting=1;html=1;fontFamily=Architects Daughter;fontSource=https%3A%2F%2Ffonts.googleapis.com%2Fcss%3Ffamily%3DArchitects%2BDaughter;fontSize=16;shadow=1;fontStyle=1;fontColor=#fdfcfc;" parent="1" source="47" target="50" edge="1">
                    <mxGeometry relative="1" as="geometry">
                        <Array as="points">
                            <mxPoint x="-600" y="1150"/>
                        </Array>
                    </mxGeometry>
                </mxCell>
                <mxCell id="65" value="" style="edgeStyle=none;sketch=1;hachureGap=4;jiggle=2;curveFitting=1;html=1;fontFamily=Architects Daughter;fontSource=https%3A%2F%2Ffonts.googleapis.com%2Fcss%3Ffamily%3DArchitects%2BDaughter;fontSize=16;fontColor=#fdfcfc;" parent="1" source="47" target="64" edge="1">
                    <mxGeometry relative="1" as="geometry"/>
                </mxCell>
                <mxCell id="47" value="De 30 a 35" style="rhombus;whiteSpace=wrap;html=1;fontSize=20;fontFamily=Architects Daughter;sketch=1;hachureGap=4;jiggle=2;curveFitting=1;fontSource=https%3A%2F%2Ffonts.googleapis.com%2Fcss%3Ffamily%3DArchitects%2BDaughter;shadow=1;fontStyle=1;fillColor=#b0e3e6;strokeColor=#0e8088;fontColor=#fdfcfc;" parent="1" vertex="1">
                    <mxGeometry x="-500" y="1110" width="130" height="80" as="geometry"/>
                </mxCell>
                <mxCell id="53" value="" style="edgeStyle=none;sketch=1;hachureGap=4;jiggle=2;curveFitting=1;html=1;fontFamily=Architects Daughter;fontSource=https%3A%2F%2Ffonts.googleapis.com%2Fcss%3Ffamily%3DArchitects%2BDaughter;fontSize=16;shadow=1;fontStyle=1;fontColor=#fdfcfc;" parent="1" source="50" target="52" edge="1">
                    <mxGeometry relative="1" as="geometry">
                        <Array as="points">
                            <mxPoint x="-760" y="1290"/>
                        </Array>
                    </mxGeometry>
                </mxCell>
                <mxCell id="67" value="" style="edgeStyle=none;sketch=1;hachureGap=4;jiggle=2;curveFitting=1;html=1;fontFamily=Architects Daughter;fontSource=https%3A%2F%2Ffonts.googleapis.com%2Fcss%3Ffamily%3DArchitects%2BDaughter;fontSize=16;fontColor=#fdfcfc;" parent="1" source="50" target="66" edge="1">
                    <mxGeometry relative="1" as="geometry"/>
                </mxCell>
                <mxCell id="50" value="De 35 a 40" style="rhombus;whiteSpace=wrap;html=1;fontSize=20;fontFamily=Architects Daughter;sketch=1;hachureGap=4;jiggle=2;curveFitting=1;fontSource=https%3A%2F%2Ffonts.googleapis.com%2Fcss%3Ffamily%3DArchitects%2BDaughter;shadow=1;fontStyle=1;fillColor=#e6d0de;gradientColor=#d5739d;strokeColor=#996185;fontColor=#fdfcfc;" parent="1" vertex="1">
                    <mxGeometry x="-680" y="1250" width="160" height="90" as="geometry"/>
                </mxCell>
                <mxCell id="69" value="" style="edgeStyle=none;sketch=1;hachureGap=4;jiggle=2;curveFitting=1;html=1;fontFamily=Architects Daughter;fontSource=https%3A%2F%2Ffonts.googleapis.com%2Fcss%3Ffamily%3DArchitects%2BDaughter;fontSize=16;fontColor=#fdfcfc;" parent="1" source="52" target="68" edge="1">
                    <mxGeometry relative="1" as="geometry"/>
                </mxCell>
                <mxCell id="52" value="&amp;gt;40" style="rhombus;whiteSpace=wrap;html=1;fontSize=20;fontFamily=Architects Daughter;sketch=1;hachureGap=4;jiggle=2;curveFitting=1;fontSource=https%3A%2F%2Ffonts.googleapis.com%2Fcss%3Ffamily%3DArchitects%2BDaughter;fillColor=#f5f5f5;gradientColor=#b3b3b3;strokeColor=#666666;" parent="1" vertex="1">
                    <mxGeometry x="-820" y="1360" width="110" height="90" as="geometry"/>
                </mxCell>
                <mxCell id="71" style="edgeStyle=none;sketch=1;hachureGap=4;jiggle=2;curveFitting=1;html=1;fontFamily=Architects Daughter;fontSource=https%3A%2F%2Ffonts.googleapis.com%2Fcss%3Ffamily%3DArchitects%2BDaughter;fontSize=16;" edge="1" parent="1" source="54">
                    <mxGeometry relative="1" as="geometry">
                        <mxPoint x="1120" y="1680" as="targetPoint"/>
                        <Array as="points">
                            <mxPoint x="1120" y="500"/>
                        </Array>
                    </mxGeometry>
                </mxCell>
                <mxCell id="54" value="resultado&lt;br&gt;(Criterio de ingreso en hospital)." style="rounded=1;whiteSpace=wrap;html=1;fontSize=20;fontFamily=Architects Daughter;sketch=1;hachureGap=4;jiggle=2;curveFitting=1;fontSource=https%3A%2F%2Ffonts.googleapis.com%2Fcss%3Ffamily%3DArchitects%2BDaughter;shadow=1;fontStyle=1;fillColor=#1ba1e2;fontColor=#fdfcfc;strokeColor=#006EAF;" parent="1" vertex="1">
                    <mxGeometry x="543" y="460" width="267" height="80" as="geometry"/>
                </mxCell>
                <mxCell id="72" style="edgeStyle=none;sketch=1;hachureGap=4;jiggle=2;curveFitting=1;html=1;fontFamily=Architects Daughter;fontSource=https%3A%2F%2Ffonts.googleapis.com%2Fcss%3Ffamily%3DArchitects%2BDaughter;fontSize=16;" edge="1" parent="1" source="56">
                    <mxGeometry relative="1" as="geometry">
                        <mxPoint x="880" y="1690" as="targetPoint"/>
                        <Array as="points">
                            <mxPoint x="870" y="590"/>
                        </Array>
                    </mxGeometry>
                </mxCell>
                <mxCell id="56" value="resultado&amp;nbsp;&lt;br&gt;(Infrapeso)" style="rounded=1;whiteSpace=wrap;html=1;fontSize=20;fontFamily=Architects Daughter;sketch=1;hachureGap=4;jiggle=2;curveFitting=1;fontSource=https%3A%2F%2Ffonts.googleapis.com%2Fcss%3Ffamily%3DArchitects%2BDaughter;shadow=1;fontStyle=1;fillColor=#d80073;fontColor=#fdfcfc;strokeColor=#A50040;" parent="1" vertex="1">
                    <mxGeometry x="540" y="555" width="240" height="85" as="geometry"/>
                </mxCell>
                <mxCell id="73" style="edgeStyle=none;sketch=1;hachureGap=4;jiggle=2;curveFitting=1;html=1;fontFamily=Architects Daughter;fontSource=https%3A%2F%2Ffonts.googleapis.com%2Fcss%3Ffamily%3DArchitects%2BDaughter;fontSize=16;" edge="1" parent="1" source="58">
                    <mxGeometry relative="1" as="geometry">
                        <mxPoint x="480" y="1680" as="targetPoint"/>
                        <Array as="points">
                            <mxPoint x="480" y="720"/>
                        </Array>
                    </mxGeometry>
                </mxCell>
                <mxCell id="58" value="resultado&lt;br&gt;(Bajo peso)" style="rounded=1;whiteSpace=wrap;html=1;fontSize=20;fontFamily=Architects Daughter;sketch=1;hachureGap=4;jiggle=2;curveFitting=1;fontSource=https%3A%2F%2Ffonts.googleapis.com%2Fcss%3Ffamily%3DArchitects%2BDaughter;shadow=1;fontStyle=1;fillColor=#a0522d;fontColor=#fdfcfc;strokeColor=#6D1F00;" parent="1" vertex="1">
                    <mxGeometry x="215" y="690" width="120" height="60" as="geometry"/>
                </mxCell>
                <mxCell id="74" style="edgeStyle=none;sketch=1;hachureGap=4;jiggle=2;curveFitting=1;html=1;fontFamily=Architects Daughter;fontSource=https%3A%2F%2Ffonts.googleapis.com%2Fcss%3Ffamily%3DArchitects%2BDaughter;fontSize=16;" edge="1" parent="1" source="60">
                    <mxGeometry relative="1" as="geometry">
                        <mxPoint x="360" y="1680" as="targetPoint"/>
                        <Array as="points">
                            <mxPoint x="360" y="860"/>
                        </Array>
                    </mxGeometry>
                </mxCell>
                <mxCell id="60" value="resultado&lt;br&gt;Peso normal (saludable)" style="rounded=1;whiteSpace=wrap;html=1;fontSize=20;fontFamily=Architects Daughter;sketch=1;hachureGap=4;jiggle=2;curveFitting=1;fontSource=https%3A%2F%2Ffonts.googleapis.com%2Fcss%3Ffamily%3DArchitects%2BDaughter;shadow=1;fontStyle=1;fillColor=#647687;fontColor=#fdfcfc;strokeColor=#314354;" parent="1" vertex="1">
                    <mxGeometry x="67" y="825" width="145" height="80" as="geometry"/>
                </mxCell>
                <mxCell id="75" style="edgeStyle=none;sketch=1;hachureGap=4;jiggle=2;curveFitting=1;html=1;fontFamily=Architects Daughter;fontSource=https%3A%2F%2Ffonts.googleapis.com%2Fcss%3Ffamily%3DArchitects%2BDaughter;fontSize=16;" edge="1" parent="1" source="62">
                    <mxGeometry relative="1" as="geometry">
                        <mxPoint x="280" y="1690" as="targetPoint"/>
                        <Array as="points">
                            <mxPoint x="280" y="1000"/>
                        </Array>
                    </mxGeometry>
                </mxCell>
                <mxCell id="62" value="resultado&lt;br&gt;Sobrepeso (obesidad de grado I)" style="whiteSpace=wrap;html=1;fontSize=20;fontFamily=Architects Daughter;sketch=1;hachureGap=4;jiggle=2;curveFitting=1;fontSource=https%3A%2F%2Ffonts.googleapis.com%2Fcss%3Ffamily%3DArchitects%2BDaughter;shadow=1;fontStyle=1;fillColor=#e51400;fontColor=#fdfcfc;strokeColor=#B20000;" parent="1" vertex="1">
                    <mxGeometry x="-110" y="962" width="260" height="90" as="geometry"/>
                </mxCell>
                <mxCell id="76" style="edgeStyle=none;sketch=1;hachureGap=4;jiggle=2;curveFitting=1;html=1;fontFamily=Architects Daughter;fontSource=https%3A%2F%2Ffonts.googleapis.com%2Fcss%3Ffamily%3DArchitects%2BDaughter;fontSize=16;" edge="1" parent="1" source="64">
                    <mxGeometry relative="1" as="geometry">
                        <mxPoint x="160" y="1690" as="targetPoint"/>
                        <Array as="points">
                            <mxPoint x="160" y="1150"/>
                        </Array>
                    </mxGeometry>
                </mxCell>
                <mxCell id="64" value="&lt;font&gt;resultado&lt;br&gt;Sobrepeso crÃ³nico (obesidad de grado II)&lt;/font&gt;" style="whiteSpace=wrap;html=1;fontSize=20;fontFamily=Architects Daughter;sketch=1;hachureGap=4;jiggle=2;curveFitting=1;fontSource=https%3A%2F%2Ffonts.googleapis.com%2Fcss%3Ffamily%3DArchitects%2BDaughter;shadow=1;fontStyle=1;fillColor=#e3c800;fontColor=#fdfcfc;strokeColor=#B09500;" parent="1" vertex="1">
                    <mxGeometry x="-285" y="1120" width="345" height="80" as="geometry"/>
                </mxCell>
                <mxCell id="77" style="edgeStyle=none;sketch=1;hachureGap=4;jiggle=2;curveFitting=1;html=1;fontFamily=Architects Daughter;fontSource=https%3A%2F%2Ffonts.googleapis.com%2Fcss%3Ffamily%3DArchitects%2BDaughter;fontSize=16;" edge="1" parent="1" source="66">
                    <mxGeometry relative="1" as="geometry">
                        <mxPoint x="80" y="1690" as="targetPoint"/>
                        <Array as="points">
                            <mxPoint x="80" y="1300"/>
                        </Array>
                    </mxGeometry>
                </mxCell>
                <mxCell id="66" value="resultado&lt;br&gt;&lt;div&gt;Obesidad premÃ³rbida (obesidad de grado&lt;/div&gt;&lt;div&gt;&lt;br&gt;&lt;/div&gt;&lt;div&gt;III)&lt;/div&gt;" style="whiteSpace=wrap;html=1;fontSize=20;fontFamily=Architects Daughter;sketch=1;hachureGap=4;jiggle=2;curveFitting=1;fontSource=https%3A%2F%2Ffonts.googleapis.com%2Fcss%3Ffamily%3DArchitects%2BDaughter;shadow=1;fontStyle=1;fillColor=#ffcd28;gradientColor=#ffa500;strokeColor=#d79b00;fontColor=#fdfcfc;" parent="1" vertex="1">
                    <mxGeometry x="-430" y="1250" width="420" height="90" as="geometry"/>
                </mxCell>
                <mxCell id="78" style="edgeStyle=none;sketch=1;hachureGap=4;jiggle=2;curveFitting=1;html=1;fontFamily=Architects Daughter;fontSource=https%3A%2F%2Ffonts.googleapis.com%2Fcss%3Ffamily%3DArchitects%2BDaughter;fontSize=16;" edge="1" parent="1" source="68">
                    <mxGeometry relative="1" as="geometry">
                        <mxPoint x="-30" y="1690" as="targetPoint"/>
                        <Array as="points">
                            <mxPoint x="-30" y="1400"/>
                        </Array>
                    </mxGeometry>
                </mxCell>
                <mxCell id="68" value="resultado&amp;nbsp;&lt;br&gt;&lt;div&gt;Obesidad mÃ³rbida (obesidad de grado&lt;/div&gt;&lt;div&gt;&lt;br&gt;&lt;/div&gt;&lt;div&gt;IV)&lt;/div&gt;" style="rounded=1;whiteSpace=wrap;html=1;fontSize=20;fontFamily=Architects Daughter;sketch=1;hachureGap=4;jiggle=2;curveFitting=1;fontSource=https%3A%2F%2Ffonts.googleapis.com%2Fcss%3Ffamily%3DArchitects%2BDaughter;fillColor=#d5e8d4;gradientColor=#97d077;strokeColor=#82b366;fontColor=#fdfcfc;" parent="1" vertex="1">
                    <mxGeometry x="-636" y="1366" width="465" height="105" as="geometry"/>
                </mxCell>
                <mxCell id="79" value="FIN&amp;nbsp;" style="ellipse;whiteSpace=wrap;html=1;sketch=1;hachureGap=4;jiggle=2;curveFitting=1;fontFamily=Architects Daughter;fontSource=https%3A%2F%2Ffonts.googleapis.com%2Fcss%3Ffamily%3DArchitects%2BDaughter;fontSize=20;fillColor=#6a00ff;fontColor=#ffffff;strokeColor=#3700CC;" vertex="1" parent="1">
                    <mxGeometry x="260" y="1840" width="120" height="80" as="geometry"/>
                </mxCell>
                <mxCell id="80" value="" style="edgeStyle=none;orthogonalLoop=1;jettySize=auto;html=1;sketch=1;hachureGap=4;jiggle=2;curveFitting=1;fontFamily=Architects Daughter;fontSource=https%3A%2F%2Ffonts.googleapis.com%2Fcss%3Ffamily%3DArchitects%2BDaughter;fontSize=16;" edge="1" parent="1">
                    <mxGeometry width="100" relative="1" as="geometry">
                        <mxPoint x="-40" y="1690" as="sourcePoint"/>
                        <mxPoint x="890" y="1680" as="targetPoint"/>
                        <Array as="points">
                            <mxPoint x="80" y="1690"/>
                        </Array>
                    </mxGeometry>
                </mxCell>
                <mxCell id="82" value="" style="edgeStyle=none;orthogonalLoop=1;jettySize=auto;html=1;sketch=1;hachureGap=4;jiggle=2;curveFitting=1;fontFamily=Architects Daughter;fontSource=https%3A%2F%2Ffonts.googleapis.com%2Fcss%3Ffamily%3DArchitects%2BDaughter;fontSize=16;entryX=0.5;entryY=0;entryDx=0;entryDy=0;" edge="1" parent="1" target="79">
                    <mxGeometry width="100" relative="1" as="geometry">
                        <mxPoint x="320" y="1680" as="sourcePoint"/>
                        <mxPoint x="420" y="1880" as="targetPoint"/>
                        <Array as="points"/>
                    </mxGeometry>
                </mxCell>
            </root>
        </mxGraphModel>
    </diagram>
</mxfile>